<COLLADA xmlns="http://www.collada.org/2005/11/COLLADASchema" version="1.4.1">
  <asset>
    <contributor />
    <created>2024-05-31T11:13:37.393856</created>
    <modified>2024-05-31T11:13:37.393863</modified>
    <unit name="meter" meter="1.0" />
    <up_axis>Z_UP</up_axis>
  </asset>
  <library_effects>
    <effect id="effect_Body" name="effect_Body">
      <profile_COMMON>
        <technique sid="common">
          <phong>
            <emission>
              <color>0.0 0.0 0.0 1.0</color>
            </emission>
            <ambient>
              <color>0.0 0.0 0.0 1.0</color>
            </ambient>
            <diffuse>
              <color>0.800000011920929 0.800000011920929 0.800000011920929 1.0</color>
            </diffuse>
            <specular>
              <color>1 1 1 1.0</color>
            </specular>
            <shininess>
              <float>0.0</float>
            </shininess>
            <reflective>
              <color>0.0 0.0 0.0 1.0</color>
            </reflective>
            <reflectivity>
              <float>0.0</float>
            </reflectivity>
            <transparent>
              <color>0.0 0.0 0.0 1.0</color>
            </transparent>
            <transparency>
              <float>1.0</float>
            </transparency>
          </phong>
        </technique>
        <extra>
          <technique profile="GOOGLEEARTH">
            <double_sided>0</double_sided>
          </technique>
        </extra>
      </profile_COMMON>
    </effect>
  </library_effects>
  <library_geometries>
    <geometry id="geometry0" name="Body">
      <mesh>
        <source id="cubeverts-array0">
          <float_array count="954" id="cubeverts-array0-array">0.035 0 -0.025 0.03495652 0.001744129 -0.021 0.035 0 -0.021 0.03495649 0.001744606 -0.025 0.03482617 0.003483924 -0.021 0.03482608 0.003484875 -0.025 0.03460929 0.005215062 -0.021 0.03460908 0.005216479 -0.025 0.03430642 0.006933241 -0.021 0.03430604 0.006935115 -0.025 0.03391829 0.008634193 -0.021 0.03391771 0.008636509 -0.025 0.03344589 0.01031369 -0.021 0.03344505 0.01031643 -0.025 0.03289038 0.01196756 -0.021 0.03288924 0.01197071 -0.025 0.03225315 0.01359169 -0.021 0.03225167 0.01359522 -0.025 0.03153578 0.01518206 -0.021 0.03153391 0.01518593 -0.025 0.03074004 0.01673469 -0.021 0.03073775 0.01673889 -0.025 0.02986792 0.01824575 -0.021 0.02986518 0.01825023 -0.025 0.02892159 0.01971146 -0.021 0.02891836 0.0197162 -0.025 0.02790339 0.0211282 -0.021 0.02789964 0.02113315 -0.025 0.02681586 0.02249244 -0.021 0.02681156 0.02249757 -0.025 0.02566169 0.02380079 -0.021 0.02565681 0.02380605 -0.025 0.02444376 0.02505 -0.021 0.02444376 0.02505 0.024 0.02316437 0.02623761 0.024 0.02443829 0.02505534 -0.025 0.023159 0.02624234 -0.025 0.02182735 0.02735995 0.024 0.02182214 0.0273641 -0.025 0.02043604 0.02841423 0.024 0.02043103 0.02841783 -0.025 0.01899389 0.02939783 0.024 0.01898912 0.02940091 -0.025 0.01750449 0.0303083 0.024 0.0175 0.03031089 -0.025 0.01597154 0.03114338 0.024 0.01596737 0.03114551 -0.025 0.01439887 0.03190098 0.024 0.01439505 0.0319027 -0.025 0.01279038 0.03257923 0.024 0.01278694 0.03258058 -0.025 0.01115007 0.03317644 0.024 0.01114703 0.03317746 -0.025 0.009482028 0.03369111 0.024 0.009479417 0.03369185 -0.025 0.007790397 0.03412198 0.024 0.007788233 0.03412248 -0.025 0.006079387 0.03446797 0.024 0.006077686 0.03446827 -0.025 0.004353253 0.03472822 0.024 0.00435203 0.03472837 -0.025 0.002616291 0.03490208 0.024 0.002615553 0.03490213 -0.025 0.0008728208 0.03498912 0.024 0.0008725742 0.03498912 -0.025 -0.0008725742 0.03498912 -0.025 -0.0008728208 0.03498912 0.024 -0.002615553 0.03490213 -0.025 -0.002616291 0.03490208 0.024 -0.00435203 0.03472837 -0.025 -0.004353253 0.03472822 0.024 -0.006077686 0.03446827 -0.025 -0.006079387 0.03446797 0.024 -0.007788233 0.03412248 -0.025 -0.007790397 0.03412198 0.024 -0.009479417 0.03369185 -0.025 -0.009482028 0.03369111 0.024 -0.01114703 0.03317746 -0.025 -0.01115007 0.03317644 0.024 -0.01278694 0.03258058 -0.025 -0.01279038 0.03257923 0.024 -0.01439505 0.0319027 -0.025 -0.01439887 0.03190098 0.024 -0.01596737 0.03114551 -0.025 -0.01597154 0.03114338 0.024 -0.0175 0.03031089 -0.025 -0.01750449 0.0303083 0.024 -0.01898912 0.02940091 -0.025 -0.01899389 0.02939783 0.024 -0.02043103 0.02841783 -0.025 -0.02043604 0.02841423 0.024 -0.02182214 0.0273641 -0.025 -0.02182735 0.02735995 0.024 -0.023159 0.02624234 -0.025 -0.02316437 0.02623761 0.024 -0.02444376 0.02505 -0.021 -0.02444376 0.02505 0.024 -0.02443829 0.02505534 -0.025 -0.02565681 0.02380605 -0.025 -0.02566169 0.02380079 -0.021 -0.02681156 0.02249757 -0.025 -0.02681586 0.02249244 -0.021 -0.02789964 0.02113315 -0.025 -0.02790339 0.0211282 -0.021 -0.02891836 0.0197162 -0.025 -0.02892159 0.01971146 -0.021 -0.02986518 0.01825023 -0.025 -0.02986792 0.01824575 -0.021 -0.03073775 0.01673889 -0.025 -0.03074004 0.01673469 -0.021 -0.03153391 0.01518593 -0.025 -0.03153578 0.01518206 -0.021 -0.03225167 0.01359522 -0.025 -0.03225315 0.01359169 -0.021 -0.03288924 0.01197071 -0.025 -0.03289038 0.01196756 -0.021 -0.03344505 0.01031643 -0.025 -0.03344589 0.01031369 -0.021 -0.03391771 0.008636509 -0.025 -0.03391829 0.008634193 -0.021 -0.03430604 0.006935115 -0.025 -0.03430642 0.006933241 -0.021 -0.03460908 0.005216479 -0.025 -0.03460929 0.005215062 -0.021 -0.03482608 0.003484875 -0.025 -0.03482617 0.003483924 -0.021 -0.03495649 0.001744606 -0.025 -0.03495652 0.001744129 -0.021 -0.035 -1.200587e-16 -0.025 -0.035 -1.982939e-17 -0.021 -0.03495652 -0.001744129 -0.021 -0.03495649 -0.001744606 -0.025 -0.03482617 -0.003483924 -0.021 -0.03482608 -0.003484875 -0.025 -0.03460929 -0.005215062 -0.021 -0.03460908 -0.005216479 -0.025 -0.03430642 -0.006933241 -0.021 -0.03430604 -0.006935115 -0.025 -0.03391829 -0.008634193 -0.021 -0.03391771 -0.008636509 -0.025 -0.03344589 -0.01031369 -0.021 -0.03344505 -0.01031643 -0.025 -0.03289038 -0.01196756 -0.021 -0.03288924 -0.01197071 -0.025 -0.03225315 -0.01359169 -0.021 -0.03225167 -0.01359522 -0.025 -0.03153578 -0.01518206 -0.021 -0.03153391 -0.01518593 -0.025 -0.03074004 -0.01673469 -0.021 -0.03073775 -0.01673889 -0.025 -0.02986792 -0.01824575 -0.021 -0.02986518 -0.01825023 -0.025 -0.02892159 -0.01971146 -0.021 -0.02891836 -0.0197162 -0.025 -0.02790339 -0.0211282 -0.021 -0.02789964 -0.02113315 -0.025 -0.02681586 -0.02249244 -0.021 -0.02681156 -0.02249757 -0.025 -0.02566169 -0.02380079 -0.021 -0.02565681 -0.02380605 -0.025 -0.02444376 -0.02505 0.024 -0.02444376 -0.02505 -0.021 -0.02316437 -0.02623761 0.024 -0.02443829 -0.02505534 -0.025 -0.023159 -0.02624234 -0.025 -0.02182735 -0.02735995 0.024 -0.02182214 -0.0273641 -0.025 -0.02043604 -0.02841423 0.024 -0.02043103 -0.02841783 -0.025 -0.01899389 -0.02939783 0.024 -0.01898912 -0.02940091 -0.025 -0.01750449 -0.0303083 0.024 -0.0175 -0.03031089 -0.025 -0.01597154 -0.03114338 0.024 -0.01596737 -0.03114551 -0.025 -0.01439887 -0.03190098 0.024 -0.01439505 -0.0319027 -0.025 -0.01279038 -0.03257923 0.024 -0.01278694 -0.03258058 -0.025 -0.01115007 -0.03317644 0.024 -0.01114703 -0.03317746 -0.025 -0.009482028 -0.03369111 0.024 -0.009479417 -0.03369185 -0.025 -0.007790397 -0.03412198 0.024 -0.007788233 -0.03412248 -0.025 -0.006079387 -0.03446797 0.024 -0.006077686 -0.03446827 -0.025 -0.004353253 -0.03472822 0.024 -0.00435203 -0.03472837 -0.025 -0.002616291 -0.03490208 0.024 -0.002615553 -0.03490213 -0.025 -0.0008728208 -0.03498912 0.024 -0.0008725742 -0.03498912 -0.025 0.0008728208 -0.03498912 0.024 0.0008725742 -0.03498912 -0.025 0.002615553 -0.03490213 -0.025 0.002616291 -0.03490208 0.024 0.00435203 -0.03472837 -0.025 0.004353253 -0.03472822 0.024 0.006077686 -0.03446827 -0.025 0.006079387 -0.03446797 0.024 0.007788233 -0.03412248 -0.025 0.007790397 -0.03412198 0.024 0.009479417 -0.03369185 -0.025 0.009482028 -0.03369111 0.024 0.01114703 -0.03317746 -0.025 0.01115007 -0.03317644 0.024 0.01278694 -0.03258058 -0.025 0.01279038 -0.03257923 0.024 0.01439505 -0.0319027 -0.025 0.01439887 -0.03190098 0.024 0.01596737 -0.03114551 -0.025 0.01597154 -0.03114338 0.024 0.0175 -0.03031089 -0.025 0.01750449 -0.0303083 0.024 0.01898912 -0.02940091 -0.025 0.01899389 -0.02939783 0.024 0.02043103 -0.02841783 -0.025 0.02043604 -0.02841423 0.024 0.02182214 -0.0273641 -0.025 0.02182735 -0.02735995 0.024 0.023159 -0.02624234 -0.025 0.02316437 -0.02623761 0.024 0.02444376 -0.02505 -0.021 0.02444376 -0.02505 0.024 0.02443829 -0.02505534 -0.025 0.02565681 -0.02380605 -0.025 0.02566169 -0.02380079 -0.021 0.02681156 -0.02249757 -0.025 0.02681586 -0.02249244 -0.021 0.02789964 -0.02113315 -0.025 0.02790339 -0.0211282 -0.021 0.02891836 -0.0197162 -0.025 0.02892159 -0.01971146 -0.021 0.02986518 -0.01825023 -0.025 0.02986792 -0.01824575 -0.021 0.03073775 -0.01673889 -0.025 0.03074004 -0.01673469 -0.021 0.03153391 -0.01518593 -0.025 0.03153578 -0.01518206 -0.021 0.03225167 -0.01359522 -0.025 0.03225315 -0.01359169 -0.021 0.03288924 -0.01197071 -0.025 0.03289038 -0.01196756 -0.021 0.03344505 -0.01031643 -0.025 0.03344589 -0.01031369 -0.021 0.03391771 -0.008636509 -0.025 0.03391829 -0.008634193 -0.021 0.03430604 -0.006935115 -0.025 0.03430642 -0.006933241 -0.021 0.03460908 -0.005216479 -0.025 0.03460929 -0.005215062 -0.021 0.03482608 -0.003484875 -0.025 0.03482617 -0.003483924 -0.021 0.03495649 -0.001744606 -0.025 0.03495652 -0.001744129 -0.021 0.02298907 -0.02505 0.025 -0.02298907 -0.02505 0.025 -0.02172141 -0.02615685 0.025 -0.02040052 -0.02719961 0.025 -0.01902966 -0.02817574 0.025 -0.01761217 -0.02908283 0.025 -0.01615154 -0.02991868 0.025 -0.01465134 -0.03068123 0.025 -0.01311525 -0.03136862 0.025 -0.01154702 -0.03197915 0.025 -0.009950502 -0.03251134 0.025 -0.008329608 -0.03296388 0.025 -0.006688307 -0.03333567 0.025 -0.005030621 -0.03362578 0.025 -0.00336061 -0.03383351 0.025 -0.001682366 -0.03395835 0.025 -8.215935e-16 -0.034 0.025 0.001682366 -0.03395835 0.025 0.00336061 -0.03383351 0.025 0.005030621 -0.03362578 0.025 0.006688307 -0.03333567 0.025 0.008329608 -0.03296388 0.025 0.009950502 -0.03251134 0.025 0.01154702 -0.03197915 0.025 0.01311525 -0.03136862 0.025 0.01465134 -0.03068123 0.025 0.01615154 -0.02991868 0.025 0.01761217 -0.02908283 0.025 0.01902966 -0.02817574 0.025 0.02040052 -0.02719961 0.025 0.02172141 -0.02615685 0.025 -0.02298907 0.02505 0.025 0.02298907 0.02505 0.025 0.02172141 0.02615685 0.025 0.02040052 0.02719961 0.025 0.01902966 0.02817574 0.025 0.01761217 0.02908283 0.025 0.01615154 0.02991868 0.025 0.01465134 0.03068123 0.025 0.01311525 0.03136862 0.025 0.01154702 0.03197915 0.025 0.009950502 0.03251134 0.025 0.008329608 0.03296388 0.025 0.006688307 0.03333567 0.025 0.005030621 0.03362578 0.025 0.00336061 0.03383351 0.025 0.001682366 0.03395835 0.025 -9.869048e-16 0.034 0.025 -0.001682366 0.03395835 0.025 -0.00336061 0.03383351 0.025 -0.005030621 0.03362578 0.025 -0.006688307 0.03333567 0.025 -0.008329608 0.03296388 0.025 -0.009950502 0.03251134 0.025 -0.01154702 0.03197915 0.025 -0.01311525 0.03136862 0.025 -0.01465134 0.03068123 0.025 -0.01615154 0.02991868 0.025 -0.01761217 0.02908283 0.025 -0.01902966 0.02817574 0.025 -0.02040052 0.02719961 0.025 -0.02172141 0.02615685 0.025</float_array>
          <technique_common>
            <accessor count="318" source="#cubeverts-array0-array" stride="3">
              <param type="float" name="X" />
              <param type="float" name="Y" />
              <param type="float" name="Z" />
            </accessor>
          </technique_common>
        </source>
        <source id="cubenormals-array0">
          <float_array count="1896" id="cubenormals-array0-array">0.9996893 0.02492375 -0 0.9996892 0.02493004 -2.745167e-06 0.9972053 0.07471002 3.208981e-06 0.9972037 0.0747311 -6.006919e-06 0.9922433 0.1243104 5.89949e-06 0.9922391 0.1243442 -8.922859e-06 0.9848161 0.1736004 8.930733e-06 0.984808 0.1736469 -1.164668e-05 0.9749414 0.2224617 1.214726e-05 0.9749279 0.2225211 -1.43705e-05 0.9626447 0.2707679 1.536255e-05 0.9626243 0.2708402 -1.735902e-05 0.9479555 0.3184025 1.830524e-05 0.9479269 0.3184879 -2.092815e-05 0.9309111 0.3652459 2.06845e-05 0.930874 0.3653405 -2.35666e-05 0.9115537 0.4111808 2.396681e-05 0.911506 0.4112866 -2.657218e-05 0.8899308 0.4560954 2.690963e-05 0.8898717 0.4562109 -2.952655e-05 0.8660973 0.4998753 2.986953e-05 0.8660255 0.4999998 -3.265169e-05 0.840111 0.5424145 3.267256e-05 0.840026 0.5425462 -3.552069e-05 0.8120379 0.5836048 3.571229e-05 0.8119376 0.5837442 -3.895318e-05 0.7819461 0.6233461 3.82035e-05 0.7818318 0.6234894 -4.144647e-05 0.7499126 0.6615369 4.160251e-05 0.7497808 0.6616863 -4.494728e-05 0.716014 0.6980859 4.404967e-05 0.680328 0.7329078 0 0.715867 0.6982367 -4.742349e-05 0.6802591 0.7329717 -3.646051e-06 0.6801729 0.7330517 4.789761e-05 0.6429386 0.7659178 3.622583e-06 0.6427876 0.7660444 -3.366658e-06 0.6039508 0.7970216 3.38396e-06 0.6038041 0.7971327 -3.145e-06 0.5634598 0.8261435 3.108226e-06 0.5633203 0.8262386 -2.887098e-06 0.5215672 0.8532102 2.868227e-06 0.4783782 0.878154 2.623092e-06 0.5214349 0.853291 -2.631988e-06 0.4339978 0.9009139 2.374002e-06 0.4782544 0.8782213 -2.382449e-06 0.3885377 0.9214329 2.115429e-06 0.4338833 0.9009691 -2.142671e-06 0.3421147 0.9396582 1.925616e-06 0.3884355 0.9214759 -1.831796e-06 0.2948345 0.9555483 1.574302e-06 0.3420193 0.939693 -1.681935e-06 0.2468262 0.9690598 1.407234e-06 0.2947559 0.9555726 -1.349451e-06 0.1982017 0.9801612 1.165138e-06 0.2467581 0.9690771 -1.092246e-06 0.1490835 0.9888246 9.079909e-07 0.1981463 0.9801725 -8.475888e-07 0.09959584 0.995028 6.115778e-07 0.1490404 0.9888311 -6.426621e-07 0.04986129 0.9987562 4.15436e-07 0.09956933 0.9950306 -3.373626e-07 0.04984478 0.998757 -1.730378e-07 0 1 7.785096e-08 0 1 7.785096e-08 -0.04986129 0.9987562 4.154869e-07 -0.04984478 0.998757 -1.730814e-07 -0.09959584 0.995028 6.114713e-07 -0.09956933 0.9950306 -3.374826e-07 -0.1490835 0.9888246 9.079739e-07 -0.1490404 0.9888311 -6.423841e-07 -0.1981463 0.9801725 -8.478025e-07 -0.1982017 0.9801612 1.165105e-06 -0.2467581 0.9690771 -1.09181e-06 -0.2468262 0.9690598 1.406907e-06 -0.2947559 0.9555726 -1.349542e-06 -0.2948345 0.9555483 1.574147e-06 -0.3420193 0.939693 -1.682037e-06 -0.3421147 0.9396582 1.926046e-06 -0.3884355 0.9214759 -1.832308e-06 -0.3885377 0.9214329 2.115587e-06 -0.4338833 0.9009691 -2.141914e-06 -0.4339978 0.9009139 2.374808e-06 -0.4782544 0.8782213 -2.382909e-06 -0.4783782 0.878154 2.62288e-06 -0.5214349 0.853291 -2.633145e-06 -0.5215672 0.8532102 2.868167e-06 -0.5633203 0.8262386 -2.887811e-06 -0.5634598 0.8261435 3.107877e-06 -0.6038041 0.7971327 -3.145044e-06 -0.6039508 0.7970216 3.383824e-06 -0.6427876 0.7660444 -3.36662e-06 -0.6429386 0.7659178 3.623531e-06 -0.6802591 0.7329717 -3.645487e-06 -0.680328 0.7329078 0 -0.6801729 0.7330517 4.790169e-05 -0.716014 0.6980859 4.403719e-05 -0.715867 0.6982367 -4.743357e-05 -0.7499126 0.6615369 4.15945e-05 -0.7497808 0.6616863 -4.493888e-05 -0.7819461 0.6233461 3.821224e-05 -0.7818318 0.6234894 -4.145281e-05 -0.8120379 0.5836048 3.571829e-05 -0.8119376 0.5837442 -3.894871e-05 -0.840111 0.5424145 3.266062e-05 -0.840026 0.5425462 -3.551441e-05 -0.8660973 0.4998753 2.987627e-05 -0.8660255 0.4999998 -3.265336e-05 -0.8899308 0.4560954 2.690402e-05 -0.8898717 0.4562109 -2.953815e-05 -0.911506 0.4112866 -2.656865e-05 -0.9115537 0.4111808 2.396594e-05 -0.930874 0.3653405 -2.357291e-05 -0.9309111 0.3652459 2.068621e-05 -0.9479269 0.3184879 -2.092743e-05 -0.9479555 0.3184025 1.830327e-05 -0.9626243 0.2708402 -1.736547e-05 -0.9626447 0.2707679 1.535665e-05 -0.9749414 0.2224617 1.214524e-05 -0.9749279 0.2225211 -1.437053e-05 -0.9848161 0.1736004 8.933845e-06 -0.984808 0.1736469 -1.164785e-05 -0.9922433 0.1243104 5.901803e-06 -0.9922391 0.1243442 -8.922563e-06 -0.9972037 0.0747311 -6.006905e-06 -0.9972053 0.07471002 3.209265e-06 -0.9996892 0.02493004 -2.745403e-06 -0.9996893 0.02492375 0 -0.9996893 -0.02492375 6.245227e-16 -0.9996892 -0.02493004 -2.745167e-06 -0.9972053 -0.07471002 3.208981e-06 -0.9972037 -0.0747311 -6.006919e-06 -0.9922433 -0.1243104 5.89949e-06 -0.9922391 -0.1243442 -8.922859e-06 -0.9848161 -0.1736004 8.930733e-06 -0.984808 -0.1736469 -1.164668e-05 -0.9749414 -0.2224617 1.214726e-05 -0.9749279 -0.2225211 -1.43705e-05 -0.9626447 -0.2707679 1.536255e-05 -0.9626243 -0.2708402 -1.735902e-05 -0.9479555 -0.3184025 1.830524e-05 -0.9479269 -0.3184879 -2.092815e-05 -0.9309111 -0.3652459 2.06845e-05 -0.930874 -0.3653405 -2.35666e-05 -0.9115537 -0.4111808 2.396681e-05 -0.911506 -0.4112866 -2.657218e-05 -0.8899308 -0.4560954 2.690963e-05 -0.8898717 -0.4562109 -2.952655e-05 -0.8660973 -0.4998753 2.986953e-05 -0.8660255 -0.4999998 -3.265169e-05 -0.840111 -0.5424145 3.267256e-05 -0.840026 -0.5425462 -3.552069e-05 -0.8120379 -0.5836048 3.571229e-05 -0.8119376 -0.5837442 -3.895318e-05 -0.7819461 -0.6233461 3.82035e-05 -0.7818318 -0.6234894 -4.144647e-05 -0.7499126 -0.6615369 4.160251e-05 -0.7497808 -0.6616863 -4.494728e-05 -0.680328 -0.7329078 -0 -0.716014 -0.6980859 4.404967e-05 -0.715867 -0.6982367 -4.742349e-05 -0.6429386 -0.7659178 3.622583e-06 -0.6802591 -0.7329717 -3.646051e-06 -0.6801729 -0.7330517 4.789761e-05 -0.6039508 -0.7970216 3.38396e-06 -0.6427876 -0.7660444 -3.366658e-06 -0.5634598 -0.8261435 3.108226e-06 -0.6038041 -0.7971327 -3.145e-06 -0.5215672 -0.8532102 2.868227e-06 -0.5633203 -0.8262386 -2.887098e-06 -0.4783782 -0.878154 2.623092e-06 -0.5214349 -0.853291 -2.631988e-06 -0.4782544 -0.8782213 -2.382449e-06 -0.4339978 -0.9009139 2.374002e-06 -0.4338833 -0.9009691 -2.142671e-06 -0.3885377 -0.9214329 2.115429e-06 -0.3884355 -0.9214759 -1.831796e-06 -0.3421147 -0.9396582 1.925616e-06 -0.2948345 -0.9555483 1.574302e-06 -0.3420193 -0.939693 -1.681935e-06 -0.2468262 -0.9690598 1.407234e-06 -0.2947559 -0.9555726 -1.349451e-06 -0.1982017 -0.9801612 1.165138e-06 -0.2467581 -0.9690771 -1.092246e-06 -0.1490835 -0.9888246 9.079909e-07 -0.1981463 -0.9801725 -8.475888e-07 -0.09959584 -0.995028 6.115778e-07 -0.1490404 -0.9888311 -6.426621e-07 -0.04986129 -0.9987562 4.15436e-07 -0.09956933 -0.9950306 -3.373626e-07 0 -1 7.785096e-08 -0.04984478 -0.998757 -1.730378e-07 0 -1 7.785096e-08 0.04986129 -0.9987562 4.154869e-07 0.04984478 -0.998757 -1.730814e-07 0.09959584 -0.995028 6.114713e-07 0.09956933 -0.9950306 -3.374826e-07 0.1490835 -0.9888246 9.079739e-07 0.1490404 -0.9888311 -6.423841e-07 0.1982017 -0.9801612 1.165105e-06 0.1981463 -0.9801725 -8.478025e-07 0.2468262 -0.9690598 1.406907e-06 0.2467581 -0.9690771 -1.09181e-06 0.2948345 -0.9555483 1.574147e-06 0.2947559 -0.9555726 -1.349542e-06 0.3421147 -0.9396582 1.926046e-06 0.3420193 -0.939693 -1.682037e-06 0.3885377 -0.9214329 2.115587e-06 0.3884355 -0.9214759 -1.832308e-06 0.4339978 -0.9009139 2.374808e-06 0.4338833 -0.9009691 -2.141914e-06 0.4783782 -0.878154 2.62288e-06 0.4782544 -0.8782213 -2.382909e-06 0.5215672 -0.8532102 2.868167e-06 0.5214349 -0.853291 -2.633145e-06 0.5634598 -0.8261435 3.107877e-06 0.5633203 -0.8262386 -2.887811e-06 0.6039508 -0.7970216 3.383824e-06 0.6038041 -0.7971327 -3.145044e-06 0.6429386 -0.7659178 3.623531e-06 0.6427876 -0.7660444 -3.36662e-06 0.6802591 -0.7329717 -3.645487e-06 0.680328 -0.7329078 0 0.6801729 -0.7330517 4.790169e-05 0.715867 -0.6982367 -4.743357e-05 0.716014 -0.6980859 4.403719e-05 0.7497808 -0.6616863 -4.493888e-05 0.7499126 -0.6615369 4.15945e-05 0.7818318 -0.6234894 -4.145281e-05 0.7819461 -0.6233461 3.821224e-05 0.8119376 -0.5837442 -3.894871e-05 0.8120379 -0.5836048 3.571829e-05 0.840026 -0.5425462 -3.551441e-05 0.840111 -0.5424145 3.266062e-05 0.8660255 -0.4999998 -3.265336e-05 0.8660973 -0.4998753 2.987627e-05 0.8898717 -0.4562109 -2.953815e-05 0.8899308 -0.4560954 2.690402e-05 0.911506 -0.4112866 -2.656865e-05 0.9115537 -0.4111808 2.396594e-05 0.930874 -0.3653405 -2.357291e-05 0.9309111 -0.3652459 2.068621e-05 0.9479269 -0.3184879 -2.092743e-05 0.9479555 -0.3184025 1.830327e-05 0.9626447 -0.2707679 1.535665e-05 0.9626243 -0.2708402 -1.736547e-05 0.9749414 -0.2224617 1.214524e-05 0.9749279 -0.2225211 -1.437053e-05 0.9848161 -0.1736004 8.933845e-06 0.984808 -0.1736469 -1.164785e-05 0.9922433 -0.1243104 5.901803e-06 0.9922391 -0.1243442 -8.922563e-06 0.9972053 -0.07471002 3.209265e-06 0.9972037 -0.0747311 -6.006905e-06 0.9996893 -0.02492375 0 0.9996892 -0.02493004 -2.745403e-06 0 0 -1 0 0 -1 0 0 -1 0 0 -1 0 0 -1 0 0 -1 0 0 -1 0 0 -1 0 0 -1 0 0 -1 0 0 -1 0 0 -1 0 0 -1 0 0 -1 0 0 -1 0 0 -1 0 0 -1 0 0 -1 0 0 -1 0 0 -1 0 0 -1 0 0 -1 0 0 -1 0 0 -1 0 0 -1 0 0 -1 0 -0 -1 0 0 -1 0 0 -1 0 0 -1 0 -0 -1 0 0 -1 0 0 -1 0 0 -1 0 0 -1 0 -0 -1 0 -0 -1 0 -0 -1 0 -0 -1 0 -0 -1 0 -0 -1 0 -0 -1 0 -0 -1 0 0 -1 0 0 -1 0 0 -1 0 0 -1 0 0 -1 0 0 -1 0 0 -1 0 0 -1 0 -0 -1 0 -0 -1 0 0 -1 0 0 -1 0 0 -1 0 -0 -1 0 -0 -1 0 0 -1 0 -0 -1 0 -0 -1 0 0 -1 0 0 -1 0 0 -1 0 -0 -1 0 -0 -1 0 0 -1 0 0 -1 0 0 -1 0 0 -1 0 -0 -1 0 -0 -1 0 -0 -1 0 0 -1 0 0 -1 0 0 -1 0 0 -1 0 -0 -1 0 -0 -1 0 -0 -1 0 -0 -1 0 -0 -1 0 0 -1 0 0 -1 0 0 -1 0 -0 -1 0 -0 -1 0 0 -1 0 0 -1 0 0 -1 0 0 -1 0 0 -1 -0 -0 -1 0 0 -1 0 -0 -1 -0 -0 -1 -0 -0 -1 0 0 -1 0 -0 -1 0 0 -1 0 -0 -1 -0 -0 -1 -0 -0 -1 0 0 -1 -0 -0 -1 -0 -0 -1 -0 -0 -1 0 0 -1 0 0 -1 -0 -0 -1 0 0 -1 0 0 -1 0 0 -1 -0 -0 -1 -0 -0 -1 -0 -0 -1 0 0 -1 0 0 -1 0 0 -1 -0 -0 -1 -0 -0 -1 0 0 -1 0 0 -1 -0 -0 -1 0 0 1 0 0 1 0 0 1 0 0 1 0 0 1 0 0 1 0 0 1 0 0 1 0 0 1 0 0 1 0 0 1 0 0 1 0 0 1 0 0 1 0 0 1 0 0 1 0 0 1 0 0 1 0 0 1 0 0 1 0 0 1 0 0 1 0 0 1 0 0 1 0 0 1 0 0 1 0 0 1 0 0 1 0 0 1 0 0 1 0 0 1 0 0 1 0 0 1 0 0 1 0 0 1 0 0 1 0 0 1 0 0 1 0 0 1 0 0 1 0 0 1 0 0 1 0 0 1 0 0 1 0 0 1 0 0 1 0 0 1 0 0 1 0 0 1 0 0 1 0 0 1 0 0 1 0 0 1 0 0 1 0 0 1 0 0 1 0 0 1 0 0 1 0 0 1 0 0 1 0 0 1 0 0 1 0 0 1 0 0 1 0 1 0 0 1 0 -0 1 0 -0 1 0 -0.4835567 -0.5209287 0.7034246 -0.4569977 -0.5444108 0.7033988 -0.4627773 -0.5300177 0.7105761 -0.4292995 -0.5665379 0.7033753 -0.435969 -0.5522484 0.7106003 -0.40053 -0.5872561 0.7033533 -0.4080957 -0.5731251 0.7106233 -0.3707613 -0.6065133 0.7033332 -0.379225 -0.5925986 0.7106444 -0.3400688 -0.6242608 0.7033147 -0.3494287 -0.6106203 0.7106635 -0.3085268 -0.6404551 0.7032982 -0.3187778 -0.6271466 0.7106813 -0.2762155 -0.655056 0.7032827 -0.2873493 -0.6421373 0.7106968 -0.2432171 -0.6680244 0.7032701 -0.2552181 -0.6555568 0.7107102 -0.2224641 -0.6673693 0.7107235 -0.209608 -0.6793323 0.7032583 -0.1891654 -0.6775506 0.7107332 -0.1754795 -0.6889468 0.703249 -0.1554076 -0.6860716 0.7107421 -0.140912 -0.6968479 0.7032402 -0.1059921 -0.7030131 0.7032341 -0.1212669 -0.6929145 0.7107488 -0.07080887 -0.7074271 0.7032304 -0.08683041 -0.6980609 0.7107542 -0.0354496 -0.71008 0.703228 -0.05218405 -0.7014983 0.710758 0 -0.710965 0.7032273 -0.01740897 -0.7032188 0.7107603 0.0354496 -0.71008 0.703228 0.01740898 -0.7032188 0.7107604 0.07080887 -0.7074271 0.7032304 0.05218405 -0.7014983 0.710758 0.1059921 -0.7030131 0.7032341 0.08683041 -0.6980609 0.7107541 0.140912 -0.6968479 0.7032402 0.1212669 -0.6929145 0.7107487 0.1754795 -0.6889468 0.703249 0.1554076 -0.6860716 0.7107421 0.209608 -0.6793323 0.7032583 0.1891654 -0.6775506 0.7107332 0.2432171 -0.6680244 0.7032701 0.2224641 -0.6673693 0.7107235 0.2762155 -0.655056 0.7032827 0.2552181 -0.6555568 0.7107102 0.3085268 -0.6404551 0.7032982 0.2873493 -0.6421373 0.7106968 0.3400688 -0.6242608 0.7033147 0.3187778 -0.6271466 0.7106813 0.3707613 -0.6065133 0.7033332 0.3494287 -0.6106203 0.7106635 0.40053 -0.5872561 0.7033533 0.379225 -0.5925986 0.7106444 0.4292995 -0.5665379 0.7033753 0.4080957 -0.5731251 0.7106233 0.4569977 -0.5444108 0.7033988 0.435969 -0.5522484 0.7106003 0.4835567 -0.5209287 0.7034246 0.4627773 -0.5300177 0.7105761 0 -1 0 0 -1 0 -0 -1 -0 -0 -1 -0 0.4835567 0.5209287 0.7034246 0.4569977 0.5444108 0.7033988 0.4627773 0.5300177 0.7105761 0.4292995 0.5665379 0.7033753 0.435969 0.5522484 0.7106003 0.40053 0.5872561 0.7033533 0.4080957 0.5731251 0.7106233 0.3707613 0.6065133 0.7033332 0.379225 0.5925986 0.7106444 0.3400688 0.6242608 0.7033147 0.3494287 0.6106203 0.7106635 0.3085268 0.6404551 0.7032982 0.3187778 0.6271466 0.7106813 0.2762155 0.655056 0.7032827 0.2873493 0.6421373 0.7106968 0.2432171 0.6680244 0.7032701 0.2552181 0.6555568 0.7107102 0.2224641 0.6673693 0.7107235 0.209608 0.6793323 0.7032583 0.1891654 0.6775506 0.7107332 0.1754795 0.6889468 0.703249 0.1554076 0.6860716 0.7107421 0.140912 0.6968479 0.7032402 0.1059921 0.7030131 0.7032341 0.1212669 0.6929145 0.7107488 0.07080887 0.7074271 0.7032304 0.08683041 0.6980609 0.7107542 0.0354496 0.71008 0.703228 0.05218405 0.7014983 0.710758 0 0.710965 0.7032273 0.01740897 0.7032188 0.7107603 -0.0354496 0.71008 0.703228 -0.01740898 0.7032188 0.7107604 -0.07080887 0.7074271 0.7032304 -0.05218405 0.7014983 0.710758 -0.1059921 0.7030131 0.7032341 -0.08683041 0.6980609 0.7107541 -0.140912 0.6968479 0.7032402 -0.1212669 0.6929145 0.7107487 -0.1754795 0.6889468 0.703249 -0.1554076 0.6860716 0.7107421 -0.209608 0.6793323 0.7032583 -0.1891654 0.6775506 0.7107332 -0.2432171 0.6680244 0.7032701 -0.2224641 0.6673693 0.7107235 -0.2762155 0.655056 0.7032827 -0.2552181 0.6555568 0.7107102 -0.3085268 0.6404551 0.7032982 -0.2873493 0.6421373 0.7106968 -0.3400688 0.6242608 0.7033147 -0.3187778 0.6271466 0.7106813 -0.3707613 0.6065133 0.7033332 -0.3494287 0.6106203 0.7106635 -0.40053 0.5872561 0.7033533 -0.379225 0.5925986 0.7106444 -0.4292995 0.5665379 0.7033753 -0.4080957 0.5731251 0.7106233 -0.4569977 0.5444108 0.7033988 -0.435969 0.5522484 0.7106003 -0.4835567 0.5209287 0.7034246 -0.4627773 0.5300177 0.7105761 0 0 1 0 0 1 0 0 1 0 0 1 0 0 1 0 0 1 0 0 1 0 0 1 0 0 1 0 0 1 0 0 1 0 0 1 0 0 1 0 0 1 0 0 1 0 0 1 0 0 1 0 0 1 0 0 1 0 0 1 0 0 1 0 0 1 0 0 1 0 0 1 0 0 1 0 0 1 0 0 1 0 0 1 0 0 1 0 0 1 0 0 1 0 0 1 0 0 1 0 0 1 0 0 1 0 0 1 0 0 1 0 0 1 0 0 1 0 0 1 0 0 1 0 0 1 0 0 1 0 0 1 0 0 1 0 0 1 0 0 1 0 0 1 0 0 1 0 0 1 0 0 1 0 0 1 0 0 1 0 0 1 0 0 1 0 0 1 0 0 1 0 0 1</float_array>
          <technique_common>
            <accessor count="632" source="#cubenormals-array0-array" stride="3">
              <param type="float" name="X" />
              <param type="float" name="Y" />
              <param type="float" name="Z" />
            </accessor>
          </technique_common>
        </source>
        <vertices id="cubeverts-array0-vertices">
          <input semantic="POSITION" source="#cubeverts-array0" />
        </vertices>
        <triangles count="632" material="ref_Body">
          <input offset="0" semantic="VERTEX" source="#cubeverts-array0-vertices" />
          <input offset="1" semantic="NORMAL" source="#cubenormals-array0" />
          <p>0 0 1 0 2 0 0 1 3 1 1 1 3 2 4 2 1 2 3 3 5 3 4 3 5 4 6 4 4 4 5 5 7 5 6 5 7 6 8 6 6 6 7 7 9 7 8 7 9 8 10 8 8 8 9 9 11 9 10 9 11 10 12 10 10 10 11 11 13 11 12 11 13 12 14 12 12 12 13 13 15 13 14 13 15 14 16 14 14 14 15 15 17 15 16 15 17 16 18 16 16 16 17 17 19 17 18 17 19 18 20 18 18 18 19 19 21 19 20 19 21 20 22 20 20 20 21 21 23 21 22 21 23 22 24 22 22 22 23 23 25 23 24 23 25 24 26 24 24 24 25 25 27 25 26 25 27 26 28 26 26 26 27 27 29 27 28 27 29 28 30 28 28 28 29 29 31 29 30 29 31 30 32 30 30 30 33 31 32 31 34 31 31 32 35 32 32 32 32 33 36 33 34 33 35 34 36 34 32 34 34 35 36 35 37 35 36 36 38 36 37 36 37 37 38 37 39 37 38 38 40 38 39 38 39 39 40 39 41 39 40 40 42 40 41 40 41 41 42 41 43 41 43 42 44 42 45 42 42 43 44 43 43 43 45 44 46 44 47 44 44 45 46 45 45 45 47 46 48 46 49 46 46 47 48 47 47 47 49 48 50 48 51 48 48 49 50 49 49 49 51 50 52 50 53 50 50 51 52 51 51 51 53 52 54 52 55 52 52 53 54 53 53 53 55 54 56 54 57 54 54 55 56 55 55 55 57 56 58 56 59 56 56 57 58 57 57 57 59 58 60 58 61 58 58 59 60 59 59 59 61 60 62 60 63 60 60 61 62 61 61 61 62 62 64 62 63 62 63 63 65 63 66 63 64 64 65 64 63 64 66 65 67 65 68 65 65 66 67 66 66 66 68 67 69 67 70 67 67 68 69 68 68 68 70 69 71 69 72 69 69 70 71 70 70 70 71 71 73 71 72 71 72 72 73 72 74 72 73 73 75 73 74 73 74 74 75 74 76 74 75 75 77 75 76 75 76 76 77 76 78 76 77 77 79 77 78 77 78 78 79 78 80 78 79 79 81 79 80 79 80 80 81 80 82 80 81 81 83 81 82 81 82 82 83 82 84 82 83 83 85 83 84 83 84 84 85 84 86 84 85 85 87 85 86 85 86 86 87 86 88 86 87 87 89 87 88 87 88 88 89 88 90 88 89 89 91 89 90 89 90 90 91 90 92 90 91 91 93 91 92 91 92 92 93 92 94 92 93 93 95 93 94 93 94 94 95 94 96 94 93 95 97 95 95 95 95 96 98 96 99 96 97 97 98 97 95 97 99 98 100 98 101 98 98 99 100 99 99 99 101 100 102 100 103 100 100 101 102 101 101 101 103 102 104 102 105 102 102 103 104 103 103 103 105 104 106 104 107 104 104 105 106 105 105 105 107 106 108 106 109 106 106 107 108 107 107 107 109 108 110 108 111 108 108 109 110 109 109 109 110 110 112 110 111 110 111 111 112 111 113 111 112 112 114 112 113 112 113 113 114 113 115 113 114 114 116 114 115 114 115 115 116 115 117 115 116 116 118 116 117 116 117 117 118 117 119 117 119 118 120 118 121 118 118 119 120 119 119 119 121 120 122 120 123 120 120 121 122 121 121 121 123 122 124 122 125 122 122 123 124 123 123 123 124 124 126 124 125 124 125 125 126 125 127 125 126 126 128 126 127 126 127 127 128 127 129 127 128 128 130 128 129 128 128 129 131 129 130 129 131 130 132 130 130 130 131 131 133 131 132 131 133 132 134 132 132 132 133 133 135 133 134 133 135 134 136 134 134 134 135 135 137 135 136 135 137 136 138 136 136 136 137 137 139 137 138 137 139 138 140 138 138 138 139 139 141 139 140 139 141 140 142 140 140 140 141 141 143 141 142 141 143 142 144 142 142 142 143 143 145 143 144 143 145 144 146 144 144 144 145 145 147 145 146 145 147 146 148 146 146 146 147 147 149 147 148 147 149 148 150 148 148 148 149 149 151 149 150 149 151 150 152 150 150 150 151 151 153 151 152 151 153 152 154 152 152 152 153 153 155 153 154 153 155 154 156 154 154 154 155 155 157 155 156 155 157 156 158 156 156 156 157 157 159 157 158 157 160 158 161 158 162 158 159 159 161 159 158 159 159 160 163 160 161 160 162 161 164 161 165 161 161 162 164 162 162 162 163 163 164 163 161 163 165 164 166 164 167 164 164 165 166 165 165 165 167 166 168 166 169 166 166 167 168 167 167 167 169 168 170 168 171 168 168 169 170 169 169 169 171 170 172 170 173 170 170 171 172 171 171 171 172 172 174 172 173 172 173 173 174 173 175 173 174 174 176 174 175 174 175 175 176 175 177 175 176 176 178 176 177 176 177 177 178 177 179 177 179 178 180 178 181 178 178 179 180 179 179 179 181 180 182 180 183 180 180 181 182 181 181 181 183 182 184 182 185 182 182 183 184 183 183 183 185 184 186 184 187 184 184 185 186 185 185 185 187 186 188 186 189 186 186 187 188 187 187 187 189 188 190 188 191 188 188 189 190 189 189 189 191 190 192 190 193 190 190 191 192 191 191 191 192 192 194 192 193 192 193 193 195 193 196 193 194 194 195 194 193 194 196 195 197 195 198 195 195 196 197 196 196 196 198 197 199 197 200 197 197 198 199 198 198 198 200 199 201 199 202 199 199 200 201 200 200 200 202 201 203 201 204 201 201 202 203 202 202 202 204 203 205 203 206 203 203 204 205 204 204 204 206 205 207 205 208 205 205 206 207 206 206 206 208 207 209 207 210 207 207 208 209 208 208 208 210 209 211 209 212 209 209 210 211 210 210 210 212 211 213 211 214 211 211 212 213 212 212 212 214 213 215 213 216 213 213 214 215 214 214 214 216 215 217 215 218 215 215 216 217 216 216 216 218 217 219 217 220 217 217 218 219 218 218 218 220 219 221 219 222 219 219 220 221 220 220 220 221 221 223 221 222 221 222 222 223 222 224 222 221 223 225 223 223 223 225 224 226 224 223 224 223 225 226 225 227 225 226 226 228 226 227 226 227 227 228 227 229 227 228 228 230 228 229 228 229 229 230 229 231 229 230 230 232 230 231 230 231 231 232 231 233 231 232 232 234 232 233 232 233 233 234 233 235 233 234 234 236 234 235 234 235 235 236 235 237 235 236 236 238 236 237 236 237 237 238 237 239 237 238 238 240 238 239 238 239 239 240 239 241 239 240 240 242 240 241 240 241 241 242 241 243 241 242 242 244 242 243 242 243 243 244 243 245 243 245 244 246 244 247 244 244 245 246 245 245 245 247 246 248 246 249 246 246 247 248 247 247 247 249 248 250 248 251 248 248 249 250 249 249 249 251 250 252 250 253 250 250 251 252 251 251 251 253 252 254 252 255 252 252 253 254 253 253 253 255 254 0 254 2 254 254 255 0 255 255 255 159 256 168 256 163 256 163 257 168 257 164 257 164 258 168 258 166 258 155 259 153 259 157 259 159 260 151 260 168 260 153 261 151 261 157 261 157 262 151 262 159 262 149 263 147 263 151 263 151 264 145 264 168 264 147 265 145 265 151 265 168 266 145 266 170 266 170 267 145 267 172 267 145 268 178 268 172 268 172 269 178 269 174 269 174 270 178 270 176 270 143 271 141 271 145 271 137 272 135 272 139 272 139 273 135 273 141 273 182 274 188 274 184 274 184 275 188 275 186 275 135 276 133 276 141 276 145 277 190 277 178 277 182 278 190 278 188 278 178 279 190 279 180 279 180 280 190 280 182 280 131 281 128 281 133 281 126 282 124 282 128 282 190 283 197 283 192 283 192 284 197 284 194 284 194 285 197 285 195 285 120 286 118 286 122 286 190 287 203 287 197 287 197 288 203 288 199 288 199 289 203 289 201 289 203 290 207 290 205 290 114 291 112 291 116 291 118 292 108 292 122 292 112 293 108 293 116 293 110 294 108 294 112 294 116 295 108 295 118 295 122 296 108 296 124 296 124 297 108 297 128 297 108 298 106 298 128 298 141 299 106 299 145 299 133 300 106 300 141 300 128 301 106 301 133 301 207 302 215 302 209 302 209 303 215 303 211 303 211 304 215 304 213 304 203 305 217 305 207 305 207 306 217 306 215 306 104 307 102 307 106 307 102 308 100 308 106 308 217 309 225 309 219 309 219 310 225 310 221 310 203 311 225 311 217 311 97 312 93 312 98 312 98 313 93 313 100 313 225 314 228 314 226 314 100 315 91 315 106 315 93 316 91 316 100 316 228 317 232 317 230 317 203 318 232 318 225 318 225 319 232 319 228 319 87 320 85 320 89 320 89 321 85 321 91 321 190 322 236 322 203 322 232 323 236 323 234 323 203 324 236 324 232 324 190 325 238 325 236 325 83 326 81 326 85 326 85 327 79 327 91 327 81 328 79 328 85 328 238 329 244 329 240 329 240 330 244 330 242 330 145 331 244 331 190 331 190 332 244 332 238 332 75 333 73 333 77 333 77 334 71 334 79 334 91 335 71 335 106 335 79 336 71 336 91 336 73 337 71 337 77 337 244 338 250 338 246 338 246 339 250 339 248 339 145 340 250 340 244 340 69 341 67 341 71 341 67 342 65 342 71 342 0 343 5 343 3 343 145 344 5 344 250 344 250 345 5 345 252 345 252 346 5 346 254 346 254 347 5 347 0 347 62 348 60 348 64 348 145 349 7 349 5 349 106 350 7 350 145 350 60 351 56 351 64 351 58 352 56 352 60 352 7 353 11 353 9 353 65 354 11 354 71 354 106 355 11 355 7 355 71 356 11 356 106 356 56 357 54 357 64 357 54 358 52 358 64 358 11 359 15 359 13 359 50 360 48 360 52 360 64 361 48 361 65 361 52 362 48 362 64 362 15 363 19 363 17 363 11 364 19 364 15 364 48 365 46 365 65 365 11 366 21 366 19 366 65 367 23 367 11 367 11 368 23 368 21 368 42 369 40 369 44 369 44 370 40 370 46 370 46 371 40 371 65 371 25 372 29 372 27 372 23 373 35 373 25 373 29 374 35 374 31 374 36 375 35 375 38 375 38 376 35 376 40 376 65 377 35 377 23 377 25 378 35 378 29 378 40 379 35 379 65 379 152 380 156 380 158 380 152 381 154 381 156 381 150 382 152 382 158 382 146 383 148 383 150 383 144 384 146 384 150 384 140 385 158 385 161 385 140 386 142 386 144 386 140 387 150 387 158 387 140 388 144 388 150 388 132 389 138 389 140 389 132 390 136 390 138 390 132 391 134 391 136 391 129 392 130 392 132 392 127 393 129 393 132 393 119 394 125 394 127 394 119 395 123 395 125 395 119 396 121 396 123 396 113 397 119 397 127 397 113 398 117 398 119 398 113 399 115 399 117 399 113 400 132 400 140 400 113 401 127 401 132 401 111 402 113 402 140 402 111 403 140 403 161 403 107 404 109 404 111 404 105 405 107 405 111 405 99 406 101 406 103 406 95 407 111 407 161 407 95 408 105 408 111 408 95 409 103 409 105 409 95 410 99 410 103 410 227 411 161 411 223 411 235 412 231 412 233 412 235 413 229 413 231 413 239 414 235 414 237 414 243 415 239 415 241 415 249 416 245 416 247 416 249 417 243 417 245 417 251 418 243 418 249 418 253 419 243 419 251 419 1 420 255 420 2 420 1 421 253 421 255 421 1 422 229 422 235 422 1 423 227 423 229 423 1 424 235 424 239 424 1 425 239 425 243 425 1 426 243 426 253 426 4 427 161 427 227 427 4 428 227 428 1 428 10 429 6 429 8 429 10 430 4 430 6 430 12 431 4 431 10 431 16 432 12 432 14 432 16 433 4 433 12 433 20 434 16 434 18 434 24 435 20 435 22 435 26 436 4 436 16 436 26 437 16 437 20 437 26 438 20 438 24 438 28 439 4 439 26 439 30 440 95 440 161 440 30 441 161 441 4 441 30 442 4 442 28 442 32 443 95 443 30 443 256 444 224 444 223 444 257 445 223 445 161 445 257 446 256 446 223 446 160 447 257 447 161 447 257 448 160 448 162 448 258 449 162 449 165 449 258 450 257 450 162 450 259 451 165 451 167 451 259 452 258 452 165 452 260 453 167 453 169 453 260 454 259 454 167 454 261 455 169 455 171 455 261 456 260 456 169 456 262 457 171 457 173 457 262 458 261 458 171 458 263 459 173 459 175 459 263 460 262 460 173 460 264 461 175 461 177 461 264 462 263 462 175 462 265 463 177 463 179 463 265 464 264 464 177 464 266 465 265 465 179 465 266 466 179 466 181 466 267 467 266 467 181 467 267 468 181 468 183 468 268 469 267 469 183 469 268 470 183 470 185 470 269 471 185 471 187 471 269 472 268 472 185 472 270 473 187 473 189 473 270 474 269 474 187 474 271 475 189 475 191 475 271 476 270 476 189 476 272 477 191 477 193 477 272 478 271 478 191 478 273 479 193 479 196 479 273 480 272 480 193 480 274 481 196 481 198 481 274 482 273 482 196 482 275 483 198 483 200 483 275 484 274 484 198 484 276 485 200 485 202 485 276 486 275 486 200 486 277 487 202 487 204 487 277 488 276 488 202 488 278 489 204 489 206 489 278 490 277 490 204 490 279 491 206 491 208 491 279 492 278 492 206 492 280 493 208 493 210 493 280 494 279 494 208 494 281 495 210 495 212 495 281 496 280 496 210 496 282 497 212 497 214 497 282 498 281 498 212 498 283 499 214 499 216 499 283 500 282 500 214 500 284 501 216 501 218 501 284 502 283 502 216 502 285 503 218 503 220 503 285 504 284 504 218 504 286 505 220 505 222 505 286 506 285 506 220 506 256 507 222 507 224 507 256 508 286 508 222 508 287 509 96 509 95 509 32 510 287 510 95 510 288 511 287 511 32 511 33 512 288 512 32 512 288 513 33 513 34 513 289 514 34 514 37 514 289 515 288 515 34 515 290 516 37 516 39 516 290 517 289 517 37 517 291 518 39 518 41 518 291 519 290 519 39 519 292 520 41 520 43 520 292 521 291 521 41 521 293 522 43 522 45 522 293 523 292 523 43 523 294 524 45 524 47 524 294 525 293 525 45 525 295 526 47 526 49 526 295 527 294 527 47 527 296 528 49 528 51 528 296 529 295 529 49 529 297 530 296 530 51 530 297 531 51 531 53 531 298 532 297 532 53 532 298 533 53 533 55 533 299 534 298 534 55 534 299 535 55 535 57 535 300 536 57 536 59 536 300 537 299 537 57 537 301 538 59 538 61 538 301 539 300 539 59 539 302 540 61 540 63 540 302 541 301 541 61 541 303 542 63 542 66 542 303 543 302 543 63 543 304 544 66 544 68 544 304 545 303 545 66 545 305 546 68 546 70 546 305 547 304 547 68 547 306 548 70 548 72 548 306 549 305 549 70 549 307 550 72 550 74 550 307 551 306 551 72 551 308 552 74 552 76 552 308 553 307 553 74 553 309 554 76 554 78 554 309 555 308 555 76 555 310 556 78 556 80 556 310 557 309 557 78 557 311 558 80 558 82 558 311 559 310 559 80 559 312 560 82 560 84 560 312 561 311 561 82 561 313 562 84 562 86 562 313 563 312 563 84 563 314 564 86 564 88 564 314 565 313 565 86 565 315 566 88 566 90 566 315 567 314 567 88 567 316 568 90 568 92 568 316 569 315 569 90 569 317 570 92 570 94 570 317 571 316 571 92 571 287 572 94 572 96 572 287 573 317 573 94 573 256 574 257 574 286 574 286 575 257 575 258 575 286 576 258 576 259 576 286 577 259 577 285 577 285 578 259 578 260 578 285 579 260 579 261 579 285 580 261 580 262 580 285 581 262 581 263 581 285 582 263 582 264 582 285 583 264 583 265 583 285 584 265 584 266 584 285 585 266 585 267 585 285 586 267 586 268 586 285 587 268 587 269 587 285 588 269 588 284 588 284 589 269 589 283 589 283 590 269 590 282 590 282 591 269 591 281 591 281 592 269 592 280 592 280 593 269 593 279 593 279 594 269 594 278 594 278 595 269 595 277 595 277 596 269 596 276 596 276 597 269 597 275 597 275 598 269 598 274 598 274 599 269 599 273 599 273 600 269 600 272 600 272 601 269 601 271 601 271 602 269 602 270 602 313 603 314 603 315 603 308 604 309 604 310 604 306 605 307 605 308 605 301 606 302 606 303 606 288 607 289 607 290 607 288 608 290 608 291 608 288 609 291 609 292 609 288 610 292 610 293 610 288 611 293 611 294 611 288 612 294 612 295 612 288 613 295 613 296 613 288 614 296 614 297 614 288 615 297 615 298 615 288 616 298 616 299 616 288 617 299 617 300 617 288 618 300 618 301 618 288 619 303 619 304 619 288 620 304 620 305 620 288 621 305 621 306 621 288 622 310 622 311 622 288 623 311 623 312 623 288 624 312 624 313 624 288 625 315 625 316 625 288 626 316 626 317 626 288 627 317 627 287 627 288 628 313 628 315 628 288 629 308 629 310 629 288 630 306 630 308 630 288 631 301 631 303 631</p>
        </triangles>
      </mesh>
    </geometry>
  </library_geometries>
  <library_materials>
    <material id="mat_Body" name="Body">
      <instance_effect url="#effect_Body" />
    </material>
  </library_materials>
  <library_visual_scenes>
    <visual_scene id="myscene">
      <node id="node0" name="node0">
        <instance_geometry url="#geometry0">
          <bind_material>
            <technique_common>
              <instance_material symbol="ref_Body" target="#mat_Body" />
            </technique_common>
          </bind_material>
        </instance_geometry>
      </node>
    </visual_scene>
  </library_visual_scenes>
  <scene>
    <instance_visual_scene url="#myscene" />
  </scene>
</COLLADA>
